<svg width="40" height="40" viewBox="0 0 40 40" xmlns="http://www.w3.org/2000/svg">
  <!-- Cabeza líder jugador 1 -->
  <!-- Pelo marrón oscuro -->
  <rect x="6" y="2" width="28" height="14" fill="#5D3A1A"/>
  <rect x="4" y="4" width="4" height="10" fill="#5D3A1A"/>
  <rect x="32" y="4" width="4" height="10" fill="#5D3A1A"/>
  
  <!-- Cara (piel) -->
  <rect x="8" y="8" width="24" height="18" fill="#E8B896"/>
  
  <!-- Lentes verdes -->
  <rect x="6" y="10" width="28" height="6" fill="#00CC00"/>
  <rect x="8" y="12" width="10" height="2" fill="#00FF00"/>
  <rect x="22" y="12" width="10" height="2" fill="#00FF00"/>
  
  <!-- Camisa verde con estrellas amarillas -->
  <rect x="6" y="26" width="28" height="10" fill="#00AA00"/>
  <rect x="8" y="28" width="4" height="4" fill="#FFD700"/>
  <rect x="16" y="28" width="4" height="4" fill="#FFD700"/>
  <rect x="24" y="28" width="4" height="4" fill="#FFD700"/>
  <rect x="12" y="32" width="4" height="4" fill="#FFD700"/>
  <rect x="20" y="32" width="4" height="4" fill="#FFD700"/>
  
  <!-- Micrófono -->
  <rect x="32" y="24" width="4" height="6" fill="#888888"/>
  <rect x="30" y="20" width="8" height="4" fill="#CCCCCC"/>
  <rect x="32" y="18" width="4" height="2" fill="#FFFFFF"/>
</svg>