<svg width="40" height="40" viewBox="0 0 40 40" xmlns="http://www.w3.org/2000/svg">
  <!-- Cabeza líder jugador 2 -->
  <!-- Sombrero negro -->
  <rect x="6" y="0" width="28" height="14" fill="#222222"/>
  <rect x="4" y="10" width="32" height="4" fill="#222222"/>
  
  <!-- Luces en el sombrero -->
  <rect x="10" y="10" width="4" height="2" fill="#00FFFF"/>
  <rect x="16" y="10" width="4" height="2" fill="#FFFFFF"/>
  <rect x="22" y="10" width="4" height="2" fill="#00FFFF"/>
  <rect x="28" y="10" width="4" height="2" fill="#FFFFFF"/>
  
  <!-- Pelo marrón oscuro -->
  <rect x="10" y="14" width="20" height="10" fill="#5D3A1A"/>
  
  <!-- Cara -->
  <rect x="12" y="16" width="16" height="10" fill="#E8B896"/>
  <rect x="22" y="20" width="4" height="4" fill="#FF8888"/>
  <rect x="18" y="18" width="2" height="2" fill="#000000"/>
  
  <!-- Camisa azul -->
  <rect x="8" y="26" width="24" height="10" fill="#0066CC"/>
  <rect x="10" y="28" width="20" height="6" fill="#0055BB"/>
  
  <!-- Micrófono -->
  <rect x="32" y="26" width="4" height="6" fill="#888888"/>
  <rect x="30" y="22" width="8" height="4" fill="#CCCCCC"/>
  <rect x="32" y="20" width="4" height="2" fill="#FFFFFF"/>
</svg>